<svg width="22" height="22" viewBox="0 0 22 22" fill="none" xmlns="http://www.w3.org/2000/svg">
<path d="M16.0218 8.26014C16.0286 8.2601 16.0354 8.26009 16.0423 8.26009C18.3205 8.26009 20.1673 10.1103 20.1673 12.3927C20.1673 14.5198 18.5632 16.2716 16.5007 16.5M16.0218 8.26014C16.0354 8.10889 16.0423 7.95571 16.0423 7.80092C16.0423 5.01137 13.7851 2.75 11.0007 2.75C8.36362 2.75 6.19945 4.77828 5.9777 7.36259M16.0218 8.26014C15.928 9.30197 15.5185 10.2526 14.8899 11.0151M9.16778 8.26009C8.40166 7.68345 7.44932 7.34174 6.41732 7.34174C6.26903 7.34174 6.12239 7.3488 5.9777 7.36259C3.65263 7.58425 1.83398 9.54608 1.83398 11.9334C1.83398 14.1549 3.4086 16.0079 5.50065 16.4334" stroke="#0060DE" stroke-width="1.375" stroke-linecap="round" stroke-linejoin="round"/>
<path d="M11.0007 11.9169V19.2502M11.0007 11.9169C10.3588 11.9169 9.15955 13.745 8.70898 14.2085M11.0007 11.9169C11.6425 11.9169 12.8418 13.745 13.2923 14.2085" stroke="#0060DE" stroke-width="1.375" stroke-linecap="round" stroke-linejoin="round"/>
</svg>
