<svg width="24" height="24" viewBox="0 0 24 24" fill="none" xmlns="http://www.w3.org/2000/svg">
<path d="M12 7C13.1046 7 14 6.10457 14 5C14 3.89543 13.1046 3 12 3C10.8954 3 10 3.89543 10 5C10 6.10457 10.8954 7 12 7Z" stroke="url(#paint0_linear_2479_385)" stroke-width="1.5" stroke-linecap="round" stroke-linejoin="round"/>
<path d="M10 5H4M14 5H20" stroke="url(#paint1_linear_2479_385)" stroke-width="1.5" stroke-linecap="round" stroke-linejoin="round"/>
<path d="M17 21H7" stroke="url(#paint2_linear_2479_385)" stroke-width="1.5" stroke-linecap="round" stroke-linejoin="round"/>
<path d="M12 7V21" stroke="url(#paint3_linear_2479_385)" stroke-width="1.5" stroke-linecap="round" stroke-linejoin="round"/>
<path d="M22 14C22 15.6569 20.6569 17 19 17C17.3431 17 16 15.6569 16 14L18.5 8H19.5L22 14ZM16 14H22" stroke="url(#paint4_linear_2479_385)" stroke-width="1.5" stroke-linecap="round" stroke-linejoin="round"/>
<path d="M8 14C8 15.6569 6.65685 17 5 17C3.34315 17 2 15.6569 2 14L4.5 8H5.5L8 14ZM2 14H8" stroke="url(#paint5_linear_2479_385)" stroke-width="1.5" stroke-linecap="round" stroke-linejoin="round"/>
<defs>
<linearGradient id="paint0_linear_2479_385" x1="12" y1="3" x2="12" y2="7" gradientUnits="userSpaceOnUse">
<stop stop-color="#E05510"/>
<stop offset="1" stop-color="#5D1B00"/>
</linearGradient>
<linearGradient id="paint1_linear_2479_385" x1="12" y1="5" x2="12" y2="6" gradientUnits="userSpaceOnUse">
<stop stop-color="#E05510"/>
<stop offset="1" stop-color="#5D1B00"/>
</linearGradient>
<linearGradient id="paint2_linear_2479_385" x1="12" y1="21" x2="12" y2="22" gradientUnits="userSpaceOnUse">
<stop stop-color="#E05510"/>
<stop offset="1" stop-color="#5D1B00"/>
</linearGradient>
<linearGradient id="paint3_linear_2479_385" x1="12.5" y1="7" x2="12.5" y2="21" gradientUnits="userSpaceOnUse">
<stop stop-color="#E05510"/>
<stop offset="1" stop-color="#5D1B00"/>
</linearGradient>
<linearGradient id="paint4_linear_2479_385" x1="19" y1="8" x2="19" y2="17" gradientUnits="userSpaceOnUse">
<stop stop-color="#E05510"/>
<stop offset="1" stop-color="#5D1B00"/>
</linearGradient>
<linearGradient id="paint5_linear_2479_385" x1="5" y1="8" x2="5" y2="17" gradientUnits="userSpaceOnUse">
<stop stop-color="#E05510"/>
<stop offset="1" stop-color="#5D1B00"/>
</linearGradient>
</defs>
</svg>
