<svg width="24" height="24" viewBox="0 0 24 24" fill="none" xmlns="http://www.w3.org/2000/svg">
<path d="M21.5 12.95V11.05C21.5 7.01949 21.5 5.00424 20.1088 3.75212C18.7175 2.5 16.4783 2.5 12 2.5C7.52166 2.5 5.28249 2.5 3.89124 3.75212C2.5 5.00424 2.5 7.01949 2.5 11.05V12.95C2.5 16.9805 2.5 18.9958 3.89124 20.2479C5.28249 21.5 7.52166 21.5 12 21.5C16.4783 21.5 18.7175 21.5 20.1088 20.2479C21.5 18.9958 21.5 16.9805 21.5 12.95Z" stroke="url(#paint0_linear_2479_372)" stroke-width="1.5"/>
<path d="M18 8H14M16 6V10" stroke="url(#paint1_linear_2479_372)" stroke-width="1.5" stroke-linecap="round" stroke-linejoin="round"/>
<path d="M18 17.5H14" stroke="url(#paint2_linear_2479_372)" stroke-width="1.5" stroke-linecap="round" stroke-linejoin="round"/>
<path d="M18 14.5H14" stroke="url(#paint3_linear_2479_372)" stroke-width="1.5" stroke-linecap="round" stroke-linejoin="round"/>
<path d="M10 17.5L8.25 15.75M8.25 15.75L6.5 14M8.25 15.75L10 14M8.25 15.75L6.5 17.5" stroke="url(#paint4_linear_2479_372)" stroke-width="1.5" stroke-linecap="round" stroke-linejoin="round"/>
<path d="M10 8H6" stroke="url(#paint5_linear_2479_372)" stroke-width="1.5" stroke-linecap="round" stroke-linejoin="round"/>
<defs>
<linearGradient id="paint0_linear_2479_372" x1="12" y1="2.5" x2="12" y2="21.5" gradientUnits="userSpaceOnUse">
<stop stop-color="#E05510"/>
<stop offset="1" stop-color="#5D1B00"/>
</linearGradient>
<linearGradient id="paint1_linear_2479_372" x1="16" y1="6" x2="16" y2="10" gradientUnits="userSpaceOnUse">
<stop stop-color="#E05510"/>
<stop offset="1" stop-color="#5D1B00"/>
</linearGradient>
<linearGradient id="paint2_linear_2479_372" x1="16" y1="17.5" x2="16" y2="18.5" gradientUnits="userSpaceOnUse">
<stop stop-color="#E05510"/>
<stop offset="1" stop-color="#5D1B00"/>
</linearGradient>
<linearGradient id="paint3_linear_2479_372" x1="16" y1="14.5" x2="16" y2="15.5" gradientUnits="userSpaceOnUse">
<stop stop-color="#E05510"/>
<stop offset="1" stop-color="#5D1B00"/>
</linearGradient>
<linearGradient id="paint4_linear_2479_372" x1="8.25" y1="14" x2="8.25" y2="17.5" gradientUnits="userSpaceOnUse">
<stop stop-color="#E05510"/>
<stop offset="1" stop-color="#5D1B00"/>
</linearGradient>
<linearGradient id="paint5_linear_2479_372" x1="8" y1="8" x2="8" y2="9" gradientUnits="userSpaceOnUse">
<stop stop-color="#E05510"/>
<stop offset="1" stop-color="#5D1B00"/>
</linearGradient>
</defs>
</svg>
