<svg width="34" height="34" viewBox="0 0 34 34" fill="none" xmlns="http://www.w3.org/2000/svg">
<path d="M24.0833 15.3064C24.0833 14.8166 24.0833 14.5718 24.157 14.3537C24.3712 13.7196 24.9359 13.4736 25.5015 13.2159C26.1375 12.9263 26.4554 12.7814 26.7704 12.756C27.1282 12.727 27.4864 12.8041 27.7921 12.9757C28.1975 13.2031 28.4801 13.6353 28.7695 13.9868C30.106 15.61 30.7741 16.4217 31.0186 17.3168C31.2159 18.039 31.2159 18.7944 31.0186 19.5166C30.662 20.822 29.5354 21.9164 28.7014 22.9293C28.2748 23.4474 28.0615 23.7065 27.7921 23.8577C27.4864 24.0292 27.1282 24.1063 26.7704 24.0774C26.4554 24.0519 26.1375 23.9071 25.5015 23.6174C24.9359 23.3597 24.3712 23.1138 24.157 22.4797C24.0833 22.2615 24.0833 22.0167 24.0833 21.527V15.3064Z" stroke="#122A67" stroke-width="2.125"/>
<path d="M9.91665 15.3065C9.91665 14.69 9.89934 14.1358 9.40085 13.7023C9.21955 13.5446 8.97917 13.4351 8.49844 13.2162C7.86249 12.9265 7.54452 12.7817 7.22946 12.7562C6.28419 12.6797 5.77562 13.3249 5.2305 13.987C3.89404 15.6103 3.22581 16.4219 2.9813 17.3169C2.78398 18.0393 2.78398 18.7946 2.9813 19.5169C3.33793 20.8223 4.46463 21.9165 5.29861 22.9296C5.82431 23.5681 6.32649 24.1506 7.22946 24.0777C7.54452 24.0522 7.86249 23.9072 8.49844 23.6177C8.97917 23.3987 9.21955 23.2892 9.40085 23.1315C9.89934 22.698 9.91665 22.1439 9.91665 21.5272V15.3065Z" stroke="#122A67" stroke-width="2.125"/>
<path d="M7.08331 12.75C7.08331 8.05558 11.5232 4.25 17 4.25C22.4768 4.25 26.9166 8.05558 26.9166 12.75" stroke="#122A67" stroke-width="2.125" stroke-linecap="square" stroke-linejoin="round"/>
<path d="M26.9167 24.0833V25.2166C26.9167 27.7203 24.3796 29.7499 21.25 29.7499H18.4167" stroke="#122A67" stroke-width="2.125" stroke-linecap="round" stroke-linejoin="round"/>
</svg>
