<svg width="30" height="31" viewBox="0 0 30 31" fill="none" xmlns="http://www.w3.org/2000/svg">
<g filter="url(#filter0_d_2479_518)">
<path d="M14.75 22C20.2728 22 24.75 17.5228 24.75 12C24.75 6.47715 20.2728 2 14.75 2C9.22715 2 4.75 6.47715 4.75 12C4.75 17.5228 9.22715 22 14.75 22Z" stroke="url(#paint0_linear_2479_518)" stroke-width="1.5"/>
<path d="M14.75 22C16.9591 22 18.75 17.5228 18.75 12C18.75 6.47715 16.9591 2 14.75 2C12.5409 2 10.75 6.47715 10.75 12C10.75 17.5228 12.5409 22 14.75 22Z" stroke="url(#paint1_linear_2479_518)" stroke-width="1.5"/>
<path d="M4.75 12H24.75" stroke="url(#paint2_linear_2479_518)" stroke-width="1.5" stroke-linecap="round" stroke-linejoin="round"/>
</g>
<defs>
<filter id="filter0_d_2479_518" x="-1.25" y="0" width="32" height="32" filterUnits="userSpaceOnUse" color-interpolation-filters="sRGB">
<feFlood flood-opacity="0" result="BackgroundImageFix"/>
<feColorMatrix in="SourceAlpha" type="matrix" values="0 0 0 0 0 0 0 0 0 0 0 0 0 0 0 0 0 0 127 0" result="hardAlpha"/>
<feOffset dy="4"/>
<feGaussianBlur stdDeviation="2"/>
<feComposite in2="hardAlpha" operator="out"/>
<feColorMatrix type="matrix" values="0 0 0 0 0 0 0 0 0 0 0 0 0 0 0 0 0 0 0.25 0"/>
<feBlend mode="normal" in2="BackgroundImageFix" result="effect1_dropShadow_2479_518"/>
<feBlend mode="normal" in="SourceGraphic" in2="effect1_dropShadow_2479_518" result="shape"/>
</filter>
<linearGradient id="paint0_linear_2479_518" x1="14.75" y1="2" x2="14.75" y2="22" gradientUnits="userSpaceOnUse">
<stop stop-color="#141B34"/>
<stop offset="1" stop-color="#3B509A"/>
</linearGradient>
<linearGradient id="paint1_linear_2479_518" x1="14.75" y1="2" x2="14.75" y2="22" gradientUnits="userSpaceOnUse">
<stop stop-color="#141B34"/>
<stop offset="1" stop-color="#3B509A"/>
</linearGradient>
<linearGradient id="paint2_linear_2479_518" x1="14.75" y1="12" x2="14.75" y2="13" gradientUnits="userSpaceOnUse">
<stop stop-color="#141B34"/>
<stop offset="1" stop-color="#3B509A"/>
</linearGradient>
</defs>
</svg>
