<svg width="34" height="34" viewBox="0 0 34 34" fill="none" xmlns="http://www.w3.org/2000/svg">
<path d="M29.75 15.8429V11.7303C29.75 9.407 29.75 8.24532 29.1775 7.48741C28.605 6.7295 27.3106 6.36155 24.7218 5.62564C22.9531 5.12287 21.3939 4.51714 20.1483 3.96416C18.4498 3.21023 17.6007 2.83325 17 2.83325C16.3993 2.83325 15.5502 3.21023 13.8518 3.96416C12.6061 4.51714 11.0469 5.12285 9.27822 5.62564C6.6894 6.36155 5.39498 6.7295 4.82249 7.48741C4.25 8.24532 4.25 9.407 4.25 11.7303V15.8429C4.25 23.812 11.4223 28.5932 15.0082 30.4857C15.8682 30.9396 16.2982 31.1666 17 31.1666C17.7018 31.1666 18.1318 30.9396 18.9918 30.4857C22.5777 28.5932 29.75 23.812 29.75 15.8429Z" stroke="#0D4016" stroke-width="2.125" stroke-linecap="round"/>
</svg>
