<svg width="24" height="24" viewBox="0 0 24 24" fill="none" xmlns="http://www.w3.org/2000/svg">
<path d="M15.5 10.5C15.5 8.567 13.933 7 12 7C10.067 7 8.5 8.567 8.5 10.5C8.5 12.433 10.067 14 12 14C13.933 14 15.5 12.433 15.5 10.5Z" stroke="url(#paint0_linear_2479_509)" stroke-width="1.5" stroke-linecap="round" stroke-linejoin="round"/>
<path d="M22 12C22 6.47715 17.5228 2 12 2C6.47715 2 2 6.47715 2 12C2 17.5228 6.47715 22 12 22C17.5228 22 22 17.5228 22 12Z" stroke="url(#paint1_linear_2479_509)" stroke-width="1.5" stroke-linecap="round" stroke-linejoin="round"/>
<path d="M18 20C18 16.6863 15.3137 14 12 14C8.68629 14 6 16.6863 6 20" stroke="url(#paint2_linear_2479_509)" stroke-width="1.5" stroke-linecap="round" stroke-linejoin="round"/>
<defs>
<linearGradient id="paint0_linear_2479_509" x1="12" y1="7" x2="12" y2="14" gradientUnits="userSpaceOnUse">
<stop stop-color="#141B34"/>
<stop offset="1" stop-color="#3B509A"/>
</linearGradient>
<linearGradient id="paint1_linear_2479_509" x1="12" y1="2" x2="12" y2="22" gradientUnits="userSpaceOnUse">
<stop stop-color="#141B34"/>
<stop offset="1" stop-color="#3B509A"/>
</linearGradient>
<linearGradient id="paint2_linear_2479_509" x1="12" y1="14" x2="12" y2="20" gradientUnits="userSpaceOnUse">
<stop stop-color="#141B34"/>
<stop offset="1" stop-color="#3B509A"/>
</linearGradient>
</defs>
</svg>
