<svg width="165" height="52" viewBox="0 0 165 52" fill="none" xmlns="http://www.w3.org/2000/svg">
<mask id="mask0_1949_171" style="mask-type:alpha" maskUnits="userSpaceOnUse" x="0" y="0" width="165" height="52">
<rect width="165" height="52" fill="#D9D9D9"/>
</mask>
<g mask="url(#mask0_1949_171)">
<path d="M121.966 16.1727L1.84077 26.8447C0.563273 26.9479 0.503246 28.9734 1.88105 29.027L122.308 34.7389C135.447 34.801 135.149 15.588 121.965 16.1703L121.966 16.1727Z" fill="#1D3B63"/>
<path d="M161.241 13.7314C154.574 1.70348 139.417 -2.68803 127.379 3.93997C123.035 6.33454 119.699 9.8249 117.509 13.8891C113.635 21.0797 113.392 30.0414 117.653 37.7197C124.305 49.7643 139.466 54.1485 151.504 47.5205C163.539 40.8974 167.89 25.7708 161.239 13.73L161.241 13.7314Z" fill="#1D3B63"/>
<path d="M138.8 13.5579C145.722 13.436 151.448 18.9381 151.59 25.8547C151.639 28.3519 150.957 30.6845 149.735 32.6596C147.575 36.1586 143.73 38.5192 139.31 38.5954C132.386 38.7261 126.657 33.2226 126.518 26.3074C126.377 19.3946 131.874 13.691 138.798 13.5604L138.8 13.5579Z" fill="white"/>
</g>
</svg>
